<svg xmlns="http://www.w3.org/2000/svg" xmlns:xlink="http://www.w3.org/1999/xlink" viewBox="0,0,256,256" width="30px" height="30px" fill-rule="nonzero"><g fill="#6dd85c" fill-rule="nonzero" stroke="none" stroke-width="1" stroke-linecap="butt" stroke-linejoin="miter" stroke-miterlimit="10" stroke-dasharray="" stroke-dashoffset="0" font-family="none" font-weight="none" font-size="none" text-anchor="none" style="mix-blend-mode: normal"><g transform="scale(8.53333,8.53333)"><path d="M15,3c-2,0 -1,1 -4,1c-1.755,0 -2.73812,0.77077 -2.95312,1.63477c-0.765,-0.133 -1.53688,-0.14477 -2.04687,0.36523c-1,1 -2,1 -2,2c0,1 1,2 3,2c2,0 0,-1 2,-1c2,0 3,0 3,-1c0,-0.113 -0.01602,-0.22689 -0.04102,-0.33789c0.345,0.144 0.6892,0.25781 1.0332,0.25781c0.993,0 1.00781,-0.91992 2.00781,-0.91992c1,0 1,1 1,2c0,1 3.00006,0.97852 5.03906,0.97852c2.04,0 3.96094,-0.97852 3.96094,-1.97852c0,-1 -2,-1 -3,-1c-1,0 -2,-1 -2,-2c0,-1 -1,-1 -2,-1c-1,0 -2,-1 -3,-1zM14.0918,9.73633c-0.216,0.077 -0.45947,0.13506 -0.73047,0.16406c-0.033,0.037 -0.07633,0.0617 -0.11133,0.0957c0.017,0.723 -0.03995,1.31127 -0.25195,1.44727c-0.207,0.133 -0.69858,-0.18106 -1.26758,-0.66406c-0.194,0.047 -0.39175,0.08819 -0.59375,0.11719c0.52,0.617 0.74717,1.47594 0.82617,2.33594c0.611,0.68 1.03711,1.31839 1.03711,1.77539c0,1.726 0.01367,2.79492 0.01367,2.79492l-1.89844,-1.43945c-0.527,0.423 -1.23642,0.56628 -1.98242,0.61328c1.725,1.726 3.86719,4.22944 3.86719,6.02344v4h4v-4c0,-0.718 0.51769,-1.69439 1.17969,-2.65039c-1.576,-0.603 -3.17969,-1.66461 -3.17969,-3.34961c0,-1.373 0.83873,-2.7418 2.42773,-3.4668c0.26,-0.474 0.62267,-1.03242 1.01367,-1.60742c-0.587,-0.038 -1.16517,-0.1028 -1.70117,-0.2168c-0.523,0.676 -1.00167,1.10084 -1.26367,0.83984c-0.226,-0.226 -0.44362,-0.87288 -0.64062,-1.67187c-0.351,-0.295 -0.61514,-0.66463 -0.74414,-1.14062zM6.44141,11.56055c-0.55078,-0.0293 -1.06641,0.06445 -1.44141,0.43945c-1,1 -2,1 -2,2c0,1 1,2 3,2c2,0 0,-1 2,-1c2,0 2,0 2,-1c0,-1 0,-2 -1,-2c-0.625,0 -1.64062,-0.39062 -2.55859,-0.43945zM25,14c-3,0 -3,1 -5,1c-2,0 -3,1 -3,2c0,1 3,2 4,2c1,0 3,-1 4,-2c1,-1 2,0 2,-1c0,-1 0,-2 -2,-2z"></path></g></g></svg>