<svg xmlns="http://www.w3.org/2000/svg" xmlns:xlink="http://www.w3.org/1999/xlink" viewBox="0,0,256,256" width="24px" height="24px" fill-rule="nonzero"><g transform=""><g fill="#dedddd" fill-rule="nonzero" stroke="none" stroke-width="1" stroke-linecap="butt" stroke-linejoin="miter" stroke-miterlimit="10" stroke-dasharray="" stroke-dashoffset="0" font-family="none" font-weight="none" font-size="none" text-anchor="none" style="mix-blend-mode: normal"><g transform="scale(10.66667,10.66667)"><path d="M12,3c-2.19729,0 -4,1.80271 -4,4c0,2.19729 1.80271,4 4,4c2.19729,0 4,-1.80271 4,-4c0,-2.19729 -1.80271,-4 -4,-4zM12,5c1.11641,0 2,0.88359 2,2c0,1.11641 -0.88359,2 -2,2c-1.11641,0 -2,-0.88359 -2,-2c0,-1.11641 0.88359,-2 2,-2zM12,14c-1.74495,0 -3.81284,0.40978 -5.55078,1.0957c-0.86897,0.34296 -1.65452,0.75035 -2.2832,1.27344c-0.62868,0.52309 -1.16602,1.23024 -1.16602,2.13086v2.5h18v-1v-1.5c0,-0.90062 -0.53733,-1.60777 -1.16602,-2.13086c-0.62868,-0.52309 -1.41423,-0.93048 -2.2832,-1.27344c-1.73794,-0.68592 -3.80583,-1.0957 -5.55078,-1.0957zM12,16c1.41405,0 3.34606,0.374 4.81836,0.95508c0.73615,0.29054 1.3586,0.63689 1.73633,0.95117c0.37772,0.31429 0.44531,0.52837 0.44531,0.59375v0.5h-14v-0.5c0,-0.06538 0.06759,-0.27946 0.44531,-0.59375c0.37773,-0.31429 1.00018,-0.66063 1.73633,-0.95117c1.4723,-0.58108 3.40431,-0.95508 4.81836,-0.95508z"></path></g></g></g></svg>